<svg width="28" height="30" viewBox="0 0 28 30" fill="none" xmlns="http://www.w3.org/2000/svg">
<mask id="path-1-inside-1_8_61" fill="white">
<path fill-rule="evenodd" clip-rule="evenodd" d="M27.7544 22.797C27.1789 22.864 26.5935 22.8985 26 22.8985C17.7157 22.8985 11 16.1828 11 7.89849C11 5.0002 11.822 2.2939 13.2456 0C5.78795 0.868782 0 7.20771 0 14.8985C0 23.1828 6.71573 29.8985 15 29.8985C20.386 29.8985 25.109 27.0598 27.7544 22.797Z"/>
</mask>
<path d="M27.7544 22.797L28.6041 23.3243L29.6965 21.564L27.6387 21.8037L27.7544 22.797ZM13.2456 0L14.0952 0.527301L15.1877 -1.23301L13.1298 -0.993283L13.2456 0ZM27.6387 21.8037C27.1015 21.8663 26.5547 21.8985 26 21.8985V23.8985C26.6322 23.8985 27.2563 23.8618 27.8701 23.7903L27.6387 21.8037ZM26 21.8985C18.268 21.8985 12 15.6305 12 7.89849H10C10 16.735 17.1634 23.8985 26 23.8985V21.8985ZM12 7.89849C12 5.19186 12.7671 2.66746 14.0952 0.527301L12.3959 -0.527301C10.8769 1.92035 10 4.80854 10 7.89849H12ZM1 14.8985C1 7.72113 6.40189 1.80402 13.3613 0.993283L13.1298 -0.993283C5.17402 -0.0664598 -1 6.69428 -1 14.8985H1ZM15 28.8985C7.26801 28.8985 1 22.6305 1 14.8985H-1C-1 23.735 6.16344 30.8985 15 30.8985V28.8985ZM26.9048 22.2697C24.434 26.2509 20.0258 28.8985 15 28.8985V30.8985C20.7462 30.8985 25.7839 27.8687 28.6041 23.3243L26.9048 22.2697Z" fill="#3C3C3C" mask="url(#path-1-inside-1_8_61)"/>
</svg>
