<svg xmlns="http://www.w3.org/2000/svg" width="34.304" height="32.579" viewBox="0 0 34.304 32.579">
  <path id="Subtraction_1" data-name="Subtraction 1" d="M12.041,31.794a16.934,16.934,0,0,1-4.818-2.23,16.609,16.609,0,0,1-3.813-3.532A15.991,15.991,0,0,1,.9,21.488,15.763,15.763,0,0,1,1.318,9.909,16.065,16.065,0,0,1,2.865,7.153a16.473,16.473,0,0,1,2.049-2.4A16.789,16.789,0,0,1,7.4,2.771,16.993,16.993,0,0,1,13.4.33a17.506,17.506,0,0,1,6.762,0,16.993,16.993,0,0,1,6,2.441A16.789,16.789,0,0,1,28.64,4.752a16.473,16.473,0,0,1,2.049,2.4,16.065,16.065,0,0,1,1.547,2.756,15.791,15.791,0,0,1,.428,11.543,15.986,15.986,0,0,1-2.474,4.519A16.6,16.6,0,0,1,26.425,29.5a16.931,16.931,0,0,1-4.761,2.251c-.426-.191-.8-.555-.789-.709.068-1.614.075-2.99.023-4.088a13.052,13.052,0,0,0-.27-2.272c-.245-1.038-.584-1.247-.832-1.4a1.322,1.322,0,0,1-.138-.093l-.04-.033a12.551,12.551,0,0,0,1.848-.224,8.638,8.638,0,0,0,1.678-.522,9.16,9.16,0,0,0,1.7-.96c2.556-1.807,2.552-3.632,2.547-5.563q0-.059,0-.118t0-.118a7.571,7.571,0,0,0-.3-2.2,5.412,5.412,0,0,0-1.081-1.978c-.136-.158-.283-.314-.436-.464a19.853,19.853,0,0,0,.316-2.219,6.256,6.256,0,0,0-.015-1.354c-.064-.415-.2-.658-.4-.72a1.059,1.059,0,0,0-.305-.038A5.67,5.67,0,0,0,23.612,7a10.655,10.655,0,0,0-2.774,1.352,14.467,14.467,0,0,0-4.136-.6,15.522,15.522,0,0,0-4.216.58A10.35,10.35,0,0,0,9.764,7a5.67,5.67,0,0,0-1.555-.322,1.059,1.059,0,0,0-.306.038c-.2.061-.334.3-.4.7a5.982,5.982,0,0,0-.018,1.319,19.309,19.309,0,0,0,.32,2.224L7.765,11a6.215,6.215,0,0,0-1.344,2.215,7.279,7.279,0,0,0-.408,2.438,8.5,8.5,0,0,0,.7,3.3A6.438,6.438,0,0,0,8.83,21.684a8.152,8.152,0,0,0,3.555,1.271c.455.068.933.119,1.461.156l-.1.061-.024.015a3.134,3.134,0,0,0-1.005,2.177,1.71,1.71,0,0,1-1.316.41,9.539,9.539,0,0,1-2.4-.409c-.374-.109-.964-.845-1.484-1.494a7.125,7.125,0,0,0-.873-.986A2.764,2.764,0,0,0,5.163,22.5a1.518,1.518,0,0,0-.715.132.127.127,0,0,0-.067.138c.024.155.271.411.679.7a3.7,3.7,0,0,0,.831.477c.143.034.355.451.649,1.027a13.752,13.752,0,0,0,1.213,2.062c.527.693,1.956.839,3.063.839a14.706,14.706,0,0,0,1.715-.1l0-.012c-.017,1.379.083,2.63.12,3.1.007.091.012.15.013.174.01.243-.435.607-.626.753h0Z" transform="translate(0.375 0.375)" fill="none" stroke="#484848" stroke-width="0.75"/>
</svg>
