<svg width="47" height="47" viewBox="0 0 47 47" fill="none" xmlns="http://www.w3.org/2000/svg">
<mask id="path-1-inside-1_32_266" fill="white">
<path fill-rule="evenodd" clip-rule="evenodd" d="M26.0657 14.2205L23.5 0L20.9343 14.2205C21.7502 13.991 22.6108 13.8683 23.5 13.8683C24.3892 13.8683 25.2498 13.991 26.0657 14.2205Z"/>
</mask>
<path d="M26.0657 14.2205L25.7949 15.1832L27.3336 15.616L27.0498 14.043L26.0657 14.2205ZM23.5 0L24.4841 -0.177555L22.5159 -0.177555L23.5 0ZM20.9343 14.2205L19.9502 14.043L19.6664 15.6159L21.2051 15.1832L20.9343 14.2205ZM27.0498 14.043L24.4841 -0.177555L22.5159 0.177555L25.0816 14.3981L27.0498 14.043ZM22.5159 -0.177555L19.9502 14.043L21.9184 14.3981L24.4841 0.177555L22.5159 -0.177555ZM21.2051 15.1832C21.9337 14.9782 22.7032 14.8683 23.5 14.8683V12.8683C22.5183 12.8683 21.5667 13.0038 20.6636 13.2579L21.2051 15.1832ZM23.5 14.8683C24.2968 14.8683 25.0663 14.9782 25.7949 15.1832L26.3365 13.2579C25.4333 13.0039 24.4817 12.8683 23.5 12.8683V14.8683Z" fill="#3B3B3B" mask="url(#path-1-inside-1_32_266)"/>
<mask id="path-3-inside-2_32_266" fill="white">
<path fill-rule="evenodd" clip-rule="evenodd" d="M26.0657 32.7796L23.5 47.0001L20.9343 32.7796C21.7502 33.0091 22.6108 33.1318 23.5 33.1318C24.3892 33.1318 25.2498 33.0091 26.0657 32.7796Z"/>
</mask>
<path d="M26.0657 32.7796L25.7949 31.817L27.3336 31.3842L27.0498 32.9572L26.0657 32.7796ZM23.5 47.0001L24.4841 47.1777L22.5159 47.1777L23.5 47.0001ZM20.9343 32.7796L19.9502 32.9572L19.6664 31.3842L21.2051 31.817L20.9343 32.7796ZM27.0498 32.9572L24.4841 47.1777L22.5159 46.8226L25.0816 32.602L27.0498 32.9572ZM22.5159 47.1777L19.9502 32.9572L21.9184 32.6021L24.4841 46.8226L22.5159 47.1777ZM21.2051 31.817C21.9337 32.0219 22.7032 32.1318 23.5 32.1318V34.1318C22.5183 34.1318 21.5667 33.9963 20.6636 33.7423L21.2051 31.817ZM23.5 32.1318C24.2968 32.1318 25.0663 32.0219 25.7949 31.817L26.3365 33.7422C25.4333 33.9963 24.4817 34.1318 23.5 34.1318V32.1318Z" fill="#3B3B3B" mask="url(#path-3-inside-2_32_266)"/>
<mask id="path-5-inside-3_32_266" fill="white">
<path fill-rule="evenodd" clip-rule="evenodd" d="M14.2205 20.9344L0 23.5001L14.2205 26.0658C13.991 25.2499 13.8683 24.3893 13.8683 23.5001C13.8683 22.6108 13.991 21.7503 14.2205 20.9344Z"/>
</mask>
<path d="M14.2205 20.9344L15.1832 21.2051L15.6159 19.6665L14.043 19.9503L14.2205 20.9344ZM0 23.5001L-0.177555 22.516L-0.177555 24.4842L0 23.5001ZM14.2205 26.0658L14.043 27.0499L15.6159 27.3337L15.1832 25.795L14.2205 26.0658ZM14.043 19.9503L-0.177555 22.516L0.177555 24.4842L14.3981 21.9185L14.043 19.9503ZM-0.177555 24.4842L14.043 27.0499L14.3981 25.0817L0.177555 22.516L-0.177555 24.4842ZM15.1832 25.795C14.9782 25.0664 14.8683 24.2969 14.8683 23.5001H12.8683C12.8683 24.4817 13.0038 25.4334 13.2579 26.3365L15.1832 25.795ZM14.8683 23.5001C14.8683 22.7032 14.9782 21.9338 15.1832 21.2051L13.2579 20.6636C13.0038 21.5668 12.8683 22.5184 12.8683 23.5001H14.8683Z" fill="#3B3B3B" mask="url(#path-5-inside-3_32_266)"/>
<mask id="path-7-inside-4_32_266" fill="white">
<path fill-rule="evenodd" clip-rule="evenodd" d="M32.7795 20.9344L47 23.5001L32.7795 26.0658C33.009 25.2499 33.1317 24.3893 33.1317 23.5001C33.1317 22.6108 33.009 21.7503 32.7795 20.9344Z"/>
</mask>
<path d="M32.7795 20.9344L31.8168 21.2051L31.3841 19.6665L32.957 19.9503L32.7795 20.9344ZM47 23.5001L47.1776 22.516L47.1776 24.4842L47 23.5001ZM32.7795 26.0658L32.957 27.0499L31.3841 27.3337L31.8168 25.795L32.7795 26.0658ZM32.957 19.9503L47.1776 22.516L46.8224 24.4842L32.6019 21.9185L32.957 19.9503ZM47.1776 24.4842L32.957 27.0499L32.6019 25.0817L46.8224 22.516L47.1776 24.4842ZM31.8168 25.795C32.0218 25.0664 32.1317 24.2969 32.1317 23.5001H34.1317C34.1317 24.4817 33.9962 25.4334 33.7421 26.3365L31.8168 25.795ZM32.1317 23.5001C32.1317 22.7032 32.0218 21.9338 31.8168 21.2051L33.7421 20.6636C33.9962 21.5668 34.1317 22.5184 34.1317 23.5001H32.1317Z" fill="#3B3B3B" mask="url(#path-7-inside-4_32_266)"/>
<mask id="path-9-inside-5_32_266" fill="white">
<path fill-rule="evenodd" clip-rule="evenodd" d="M18.7527 15.1242L6.88306 6.88303L15.1242 18.7526C15.5389 18.0134 16.0606 17.3182 16.6893 16.6894C17.3181 16.0606 18.0135 15.5389 18.7527 15.1242Z"/>
</mask>
<path d="M18.7527 15.1242L19.2419 15.9964L20.6359 15.2144L19.323 14.3028L18.7527 15.1242ZM6.88306 6.88303L7.45338 6.0616L6.06163 7.45335L6.88306 6.88303ZM15.1242 18.7526L14.3028 19.3229L15.2144 20.6359L15.9964 19.2418L15.1242 18.7526ZM19.323 14.3028L7.45338 6.0616L6.31274 7.70445L18.1823 15.9456L19.323 14.3028ZM6.06163 7.45335L14.3028 19.3229L15.9456 18.1823L7.70448 6.31271L6.06163 7.45335ZM15.9964 19.2418C16.3667 18.5817 16.833 17.9599 17.3964 17.3965L15.9822 15.9823C15.2881 16.6764 14.7111 17.4451 14.2521 18.2634L15.9964 19.2418ZM17.3964 17.3965C17.9599 16.833 18.5818 16.3667 19.2419 15.9964L18.2634 14.2521C17.4452 14.7111 16.6764 15.2881 15.9822 15.9823L17.3964 17.3965Z" fill="#3B3B3B" mask="url(#path-9-inside-5_32_266)"/>
<mask id="path-11-inside-6_32_266" fill="white">
<path fill-rule="evenodd" clip-rule="evenodd" d="M31.876 28.2474L40.1172 40.1171L28.2475 31.8759C28.9867 31.4612 29.682 30.9395 30.3108 30.3107C30.9396 29.6819 31.4613 28.9866 31.876 28.2474Z"/>
</mask>
<path d="M31.876 28.2474L31.0038 27.7582L31.7858 26.3642L32.6974 27.6771L31.876 28.2474ZM40.1172 40.1171L40.9386 39.5468L39.5469 40.9385L40.1172 40.1171ZM28.2475 31.8759L27.6772 32.6973L26.3643 31.7857L27.7583 31.0037L28.2475 31.8759ZM32.6974 27.6771L40.9386 39.5468L39.2958 40.6874L31.0545 28.8177L32.6974 27.6771ZM39.5469 40.9385L27.6772 32.6973L28.8178 31.0545L40.6875 39.2957L39.5469 40.9385ZM27.7583 31.0037C28.4184 30.6334 29.0403 30.1671 29.6037 29.6036L31.0179 31.0178C30.3238 31.712 29.555 32.289 28.7368 32.748L27.7583 31.0037ZM29.6037 29.6036C30.1671 29.0402 30.6335 28.4183 31.0038 27.7582L32.7481 28.7367C32.2891 29.5549 31.7121 30.3237 31.0179 31.0178L29.6037 29.6036Z" fill="#3B3B3B" mask="url(#path-11-inside-6_32_266)"/>
<mask id="path-13-inside-7_32_266" fill="white">
<path fill-rule="evenodd" clip-rule="evenodd" d="M31.876 18.7527L40.1172 6.88301L28.2475 15.1242C28.9867 15.5389 29.682 16.0606 30.3108 16.6894C30.9396 17.3182 31.4613 18.0135 31.876 18.7527Z"/>
</mask>
<path d="M31.876 18.7527L31.0038 19.2419L31.7858 20.636L32.6974 19.323L31.876 18.7527ZM40.1172 6.88301L40.9386 7.45333L39.5469 6.06159L40.1172 6.88301ZM28.2475 15.1242L27.6772 14.3028L26.3643 15.2144L27.7583 15.9964L28.2475 15.1242ZM32.6974 19.323L40.9386 7.45333L39.2958 6.31269L31.0546 18.1824L32.6974 19.323ZM39.5469 6.06159L27.6772 14.3028L28.8179 15.9456L40.6875 7.70443L39.5469 6.06159ZM27.7583 15.9964C28.4184 16.3667 29.0403 16.833 29.6037 17.3965L31.0179 15.9823C30.3238 15.2881 29.555 14.7111 28.7368 14.2521L27.7583 15.9964ZM29.6037 17.3965C30.1671 17.9599 30.6335 18.5818 31.0038 19.2419L32.7481 18.2634C32.2891 17.4452 31.7121 16.6764 31.0179 15.9823L29.6037 17.3965Z" fill="#3B3B3B" mask="url(#path-13-inside-7_32_266)"/>
<mask id="path-15-inside-8_32_266" fill="white">
<path fill-rule="evenodd" clip-rule="evenodd" d="M18.7527 31.8759L6.88306 40.1171L15.1242 28.2475C15.5389 28.9867 16.0606 29.6819 16.6893 30.3107C17.3181 30.9395 18.0135 31.4613 18.7527 31.8759Z"/>
</mask>
<path d="M18.7527 31.8759L19.2419 31.0037L20.636 31.7857L19.323 32.6973L18.7527 31.8759ZM6.88306 40.1171L7.45338 40.9385L6.06164 39.5468L6.88306 40.1171ZM15.1242 28.2475L14.3028 27.6772L15.2144 26.3643L15.9964 27.7583L15.1242 28.2475ZM19.323 32.6973L7.45338 40.9385L6.31274 39.2957L18.1824 31.0545L19.323 32.6973ZM6.06164 39.5468L14.3028 27.6772L15.9456 28.8178L7.70448 40.6874L6.06164 39.5468ZM15.9964 27.7583C16.3667 28.4184 16.833 29.0402 17.3964 29.6036L15.9822 31.0178C15.2881 30.3237 14.7111 29.555 14.2521 28.7368L15.9964 27.7583ZM17.3964 29.6036C17.9599 30.1671 18.5818 30.6334 19.2419 31.0037L18.2635 32.7481C17.4452 32.2891 16.6764 31.712 15.9822 31.0178L17.3964 29.6036Z" fill="#3B3B3B" mask="url(#path-15-inside-8_32_266)"/>
<circle cx="23.5" cy="23.3239" r="7.6949" stroke="#3B3B3B"/>
</svg>
